<svg width="100" height="100" viewBox="0 0 100 100" fill="none" xmlns="http://www.w3.org/2000/svg">
<rect width="100" height="100" fill="#F5F5F5"/>
<g id="icons8-instagram 1">
<path id="Vector" d="M32 6C17.66 6 6 17.66 6 32V68C6 82.34 17.66 94 32 94H68C82.34 94 94 82.34 94 68V32C94 17.66 82.34 6 68 6H32ZM74 22C76.2 22 78 23.8 78 26C78 28.2 76.2 30 74 30C71.8 30 70 28.2 70 26C70 23.8 71.8 22 74 22ZM50 28C62.14 28 72 37.86 72 50C72 62.14 62.14 72 50 72C37.86 72 28 62.14 28 50C28 37.86 37.86 28 50 28ZM50 32C40.08 32 32 40.08 32 50C32 59.92 40.08 68 50 68C59.92 68 68 59.92 68 50C68 40.08 59.92 32 50 32Z" fill="white"/>
</g>
</svg>
